# xmcd
#
# Track frame offsets: 
#        150
#        21432
#        44449
#        68683
#        92505
#        117802
#        142789
#        156071
#        170351
#
# Disc length: 2522 seconds
#
# Revision: 2
# Processed by: cddbd v1.5.2PL0 Copyright (c) Steve Scherf et al.
# Submitted via: ExactAudioCopy v1.1
#
DISCID=6909d809
DTITLE=Big Bad Voodoo Daddy - Big Bad Voodoo Daddy
DYEAR=1999
DGENRE=Swing
TTITLE0=Jumping Jack
TTITLE1=13 Women
TTITLE2=Cruel Spell
TTITLE3=King of Swing
TTITLE4=Beggar's Blues
TTITLE5=Machine Gun
TTITLE6=Fire
TTITLE7=She's Gone
TTITLE8=So Long, Goodbye
EXTD=
EXTT0=
EXTT1=
EXTT2=
EXTT3=
EXTT4=
EXTT5=
EXTT6=
EXTT7=
EXTT8=
PLAYORDER=
